<?xml version="1.0" encoding="UTF-8" standalone="no" ?>
<!DOCTYPE svg PUBLIC "-//W3C//DTD SVG 1.1//EN" "http://www.w3.org/Graphics/SVG/1.1/DTD/svg11.dtd">
<svg xmlns="http://www.w3.org/2000/svg" xmlns:xlink="http://www.w3.org/1999/xlink" version="1.1" width="1080" height="1080" viewBox="0 0 1080 1080" xml:space="preserve">
<desc>Created with Fabric.js 5.2.4</desc>
<defs>
</defs>
<g transform="matrix(1 0 0 1 540 540)" id="62e75581-34bf-42bb-9a85-dd0b056c0edd"  >
<rect style="stroke: none; stroke-width: 1; stroke-dasharray: none; stroke-linecap: butt; stroke-dashoffset: 0; stroke-linejoin: miter; stroke-miterlimit: 4; fill: rgb(255,255,255); fill-rule: nonzero; opacity: 1; visibility: hidden;" vector-effect="non-scaling-stroke"  x="-540" y="-540" rx="0" ry="0" width="1080" height="1080" />
</g>
<g transform="matrix(1 0 0 1 540 540)" id="3daec6cb-e419-4705-8034-d9c705f184c3"  >
</g>
<g transform="matrix(2.25 0 0 2.25 540 540)"  >
<g style=""   >
		<g transform="matrix(1 0 0 1 0 0)"  >
<linearGradient id="SVGID_BG_3" gradientUnits="objectBoundingBox" gradientTransform="matrix(1 0 0 1 0 0)"  x1="0.19496" y1="0.7182200000000001" x2="0.77479" y2="0.16690000000000002">
<stop offset="0%" style="stop-color:rgb(0,167,111);stop-opacity: 1"/>
<stop offset="100%" style="stop-color:rgb(0,167,111);stop-opacity: 0"/>
</linearGradient>
<path style="stroke: none; stroke-width: 1; stroke-dasharray: none; stroke-linecap: butt; stroke-dashoffset: 0; stroke-linejoin: miter; stroke-miterlimit: 4; fill: url(#SVGID_BG_3); fill-rule: nonzero; opacity: 0.2;" vector-effect="non-scaling-stroke"  transform=" translate(-240, -180)" d="M 0 198.78 C 0 240.238 14.945 278.016 39.539 306.56600000000003 C 67.753 339.331 108.667 359.93100000000004 154.273 360 C 173.64436732445904 360.0428709125836 192.83683028621522 356.2937245943972 210.76800000000003 348.96399999999994 C 219.819 345.265 229.95 345.69 238.716 350.071 C 249.25792822457174 355.3457793212474 260.8850615936909 358.0884638424549 272.673 358.081 C 277.696 358.081 282.615 357.587 287.373 356.648 C 300.953 353.978 313.313 347.658 323.46299999999997 338.708 C 329.84099999999995 333.081 338.01 330.252 346.35999999999996 330.262 L 346.50199999999995 330.262 C 374.09099999999995 330.262 399.717 321.53 420.99399999999997 306.566 C 440.015 293.20599999999996 455.548 274.86999999999995 465.89799999999997 253.34199999999998 C 474.92 234.58 480 213.388 480 190.958 C 480 114.02799999999999 420.226 51.65299999999999 346.502 51.65299999999999 C 338.986 51.65299999999999 331.622 52.31599999999999 324.439 53.55199999999999 C 305.418 21.42 271.355 0 232.499 0 C 216.5901704968466 -0.014360915480368778 200.89152980092535 3.633485825130302 186.61900000000003 10.661000000000016 C 173.379 17.148 161.608 26.366 151.97899999999998 37.6 C 119.28099999999998 38.144 89.04799999999999 49.29 64.30299999999998 67.891 C 25.351 97.155 0 144.882 0 198.781 z" stroke-linecap="round" />
</g>
		<g transform="matrix(1 0 0 1 57.67 20.44)"  >
<path style="stroke: none; stroke-width: 1; stroke-dasharray: none; stroke-linecap: butt; stroke-dashoffset: 0; stroke-linejoin: miter; stroke-miterlimit: 4; fill: rgb(255,72,66); fill-rule: nonzero; opacity: 0.05;" vector-effect="non-scaling-stroke"  transform=" translate(-297.67, -200.44)" d="M 293.006 206.192 C 290.758 208.864 288.33 208.82 286.883 208.443 L 286.93699999999995 207.05900000000003 C 286.93699999999995 207.05900000000003 292.91599999999994 204.32600000000002 292.76399999999995 204.90000000000003 C 292.70699999999994 205.11500000000004 292.82099999999997 205.63300000000004 293.006 206.19200000000004 z M 309.393 209.217 C 305.575 211.423 303.335 208.83700000000002 302.815 208.10500000000002 C 303.135 207.26500000000001 303.616 205.901 303.518 205.513 C 303.37399999999997 204.936 309.34499999999997 207.668 309.34499999999997 207.668 L 309.393 209.217 z M 305.303 187.204 C 305.303 187.204 308.935 185.11100000000002 309.728 186.053 C 310.52 186.995 305.303 187.204 305.303 187.204 z M 307.497 188.355 C 307.497 188.355 306.899 188.654 308.218 189.036 C 309.536 189.419 307.497 188.355 307.497 188.355 z M 285.532 182.599 C 285.409 182.635 288.554 184.72199999999998 291.394 182.994 C 291.382 182.994 286.24 182.384 285.532 182.599 z M 291.239 186.591 C 291.239 186.591 290.378 188.28300000000002 288.614 188.53400000000002 C 286.84999999999997 188.78500000000003 291.239 186.591 291.239 186.591 z M 302.785 190.262 C 302.785 190.262 306.923 196.84 306.13100000000003 198.391 C 305.338 199.94299999999998 302.785 190.262 302.785 190.262 z M 294.62 216.416 C 294.62 216.784 294.62 217.128 294.584 217.412 C 294.477 218.74200000000002 291.20300000000003 218.24 291.20300000000003 218.24 C 288.213 218.656 287.13700000000006 217.221 286.781 215.848 C 286.6690374918261 215.40240724293835 286.61393279554466 214.94443345616014 286.617 214.485 C 286.6149639142519 214.21104727030377 286.6330122751207 213.93731379712744 286.671 213.66600000000003 L 286.671 213.39400000000003 C 287.31495547803627 213.1993060764806 288.01365710733995 213.3417525087055 288.53 213.77300000000002 C 289.861 214.85300000000004 291.625 214.02500000000003 291.625 214.02500000000003 C 291.625 214.02500000000003 292.919 214.13200000000003 293.418 214.56300000000005 C 293.699 214.80500000000004 294.163 214.22200000000004 294.516 213.66600000000005 C 294.53700000000003 214.02500000000006 294.57 214.67300000000006 294.59000000000003 215.36700000000005 C 294.61400000000003 215.72300000000004 294.62 216.08100000000005 294.62 216.41600000000005 z" stroke-linecap="round" />
</g>
		<g transform="matrix(1 0 0 1 58.13 36.44)"  >
<path style="stroke: none; stroke-width: 1; stroke-dasharray: none; stroke-linecap: butt; stroke-dashoffset: 0; stroke-linejoin: miter; stroke-miterlimit: 4; fill: rgb(255,72,66); fill-rule: nonzero; opacity: 0.05;" vector-effect="non-scaling-stroke"  transform=" translate(-298.13, -216.44)" d="M 289.37 216.339 C 289.37 216.339 288.473 217.218 286.781 215.85999999999999 C 286.6690374918261 215.41440724293832 286.61393279554466 214.9564334561601 286.617 214.49699999999999 C 287.481 215.15499999999997 289.083 216.339 289.37 216.339 z M 294.62 216.416 C 294.47287023134356 216.53023135566067 294.2848274524581 216.57805726474137 294.101 216.548 C 293.9170816443437 216.51907748636222 293.7534045759986 216.41514979031123 293.649 216.261 C 293.997 215.995 294.318 215.695 294.605 215.364 C 294.61400000000003 215.723 294.62 216.08100000000002 294.62 216.416 z M 301.637 217.032 C 301.637 217.40300000000002 301.637 217.747 301.67 218.02800000000002 C 301.778 219.36100000000002 305.052 218.85600000000002 305.052 218.85600000000002 C 308.041 219.27500000000003 309.118 217.83900000000003 309.473 216.46400000000003 C 309.64965485471913 215.7505251522133 309.68734025717015 215.00971841214042 309.584 214.28200000000004 L 309.584 214.01000000000005 C 308.93891783056915 213.81902736507513 308.24110648646734 213.96106307904643 307.722 214.38900000000004 C 306.39099999999996 215.46900000000005 304.63 214.64000000000004 304.63 214.64000000000004 C 304.63 214.64000000000004 303.336 214.75100000000003 302.836 215.18200000000004 C 302.555 215.42400000000004 302.092 214.84100000000004 301.742 214.28500000000005 C 301.70814198044695 214.85161237565518 301.68213948274007 215.41866684487906 301.66400000000004 215.98600000000005 C 301.64000000000004 216.33600000000004 301.63400000000007 216.69400000000005 301.63700000000006 217.03200000000004 z" stroke-linecap="round" />
</g>
		<g transform="matrix(1 0 0 1 70.77 -18.61)"  >
<path style="stroke: none; stroke-width: 1; stroke-dasharray: none; stroke-linecap: butt; stroke-dashoffset: 0; stroke-linejoin: miter; stroke-miterlimit: 4; fill: rgb(255,72,66); fill-rule: nonzero; opacity: 0.05;" vector-effect="non-scaling-stroke"  transform=" translate(-310.77, -161.39)" d="M 306.887 216.949 C 306.887 216.949 307.784 217.828 309.474 216.47 C 309.586 216.026 309.643 215.569 309.64099999999996 215.10999999999999 C 308.77399999999994 215.765 307.17099999999994 216.94899999999998 306.88699999999994 216.94899999999998 z M 301.637 217.032 C 301.78369766488635 217.1465875467106 301.971454024622 217.1949802012075 302.15526380265334 217.1655782243294 C 302.3390735806846 217.13617624745135 302.5023660722336 217.03163026792956 302.606 216.877 C 302.2568915886265 216.61183643797824 301.93618108924875 216.3112331799408 301.649 215.98000000000002 C 301.64 216.336 301.635 216.69400000000002 301.637 217.032 z M 319.614 106.269 C 319.67699999999996 106.131 319.73699999999997 105.994 319.794 105.85900000000001 C 319.851 105.72500000000001 319.871 105.65 319.904 105.54200000000002 C 319.794 105.77900000000001 319.698 106.02200000000002 319.614 106.26900000000002 z" stroke-linecap="round" />
</g>
		<g transform="matrix(1 0 0 1 -4.84 33.01)"  >
<path style="stroke: none; stroke-width: 1; stroke-dasharray: none; stroke-linecap: butt; stroke-dashoffset: 0; stroke-linejoin: miter; stroke-miterlimit: 4; fill: rgb(0,75,80); fill-rule: nonzero; opacity: 1;" vector-effect="non-scaling-stroke"  transform=" translate(-235.16, -213.01)" d="M 157.592 279.461 C 156.86788169375768 278.58831807269706 156.53608821990318 277.45544417232793 156.675 276.33000000000004 L 169.871 168.35100000000006 L 170.965 159.38100000000006 C 171.21941758607608 157.31759451129184 172.96403431470003 155.76249843268764 175.043 155.74600000000007 L 213.697 155.48900000000006 C 214.8090198262715 155.48216206985106 215.87141485395625 155.0277084907285 216.6443694174533 154.22822359776382 C 217.41732398095033 153.42873870479912 217.83567946519156 152.35161756990672 217.805 151.24000000000007 L 217.79000000000002 150.83100000000007 C 217.7523407783263 149.70999054945707 218.17114619282913 148.62167539834465 218.95057887108285 147.8150992362533 C 219.73001154933658 147.00852307416196 220.80335839791388 146.5527222558137 221.925 146.55200000000008 L 262.544 146.55200000000008 C 263.73604108576563 146.55186095202092 264.87012248421075 147.06628792196105 265.65522266110526 147.96327157940857 C 266.44032283799976 148.86025523685612 266.80001609892827 150.05247857320865 266.642 151.23400000000007 C 266.48695307067516 152.3977382367127 266.8336558618322 153.57254804449448 267.59570192367926 154.46563932398584 C 268.3577479855263 155.3587306034772 269.46336233485374 155.88598558962488 270.637 155.91600000000005 L 309.647 156.91200000000006 C 310.8473437286435 156.94103338705725 311.9756293930804 157.49100638253083 312.73795016120033 158.4186566673639 C 313.50027092932027 159.34630695219695 313.8211493905433 160.55978783356557 313.617 161.74300000000005 L 294.115 275.65200000000004 L 293.747 277.80400000000003 C 293.65621259789145 278.3540702677571 293.4526129948943 278.87941171829993 293.149 279.34700000000004 L 157.592 279.461 z" stroke-linecap="round" />
</g>
		<g transform="matrix(0.82 0.57 -0.57 0.82 22.68 -17.94)"  >
<path style="stroke: none; stroke-width: 1; stroke-dasharray: none; stroke-linecap: butt; stroke-dashoffset: 0; stroke-linejoin: miter; stroke-miterlimit: 4; fill: rgb(255,255,255); fill-rule: nonzero; opacity: 1;" vector-effect="non-scaling-stroke"  transform=" translate(-262.68, -162.06)" d="M 251.256817 123.296578 L 274.098317 123.296578 L 274.098317 200.823078 L 251.256817 200.823078 z" stroke-linecap="round" />
</g>
		<g transform="matrix(0.82 0.57 -0.57 0.82 38.69 -42.08)"  >
<path style="stroke: none; stroke-width: 1; stroke-dasharray: none; stroke-linecap: butt; stroke-dashoffset: 0; stroke-linejoin: miter; stroke-miterlimit: 4; fill: rgb(255,193,7); fill-rule: nonzero; opacity: 1;" vector-effect="non-scaling-stroke"  transform=" translate(-278.69, -137.92)" d="M 270.624591 129.857671 L 286.750291 129.857671 L 286.750291 145.983371 L 270.624591 145.983371 z" stroke-linecap="round" />
</g>
		<g transform="matrix(0.82 0.57 -0.57 0.82 28.35 -26.11)"  >
<path style="stroke: none; stroke-width: 1; stroke-dasharray: none; stroke-linecap: butt; stroke-dashoffset: 0; stroke-linejoin: miter; stroke-miterlimit: 4; fill: rgb(255,193,7); fill-rule: nonzero; opacity: 0.5;" vector-effect="non-scaling-stroke"  transform=" translate(-268.35, -153.89)" d="M 260.275579 145.813111 L 276.423079 145.813111 L 276.423079 161.960611 L 260.275579 161.960611 z" stroke-linecap="round" />
</g>
		<g transform="matrix(0.82 0.57 -0.57 0.82 17.27 -10.07)"  >
<path style="stroke: none; stroke-width: 1; stroke-dasharray: none; stroke-linecap: butt; stroke-dashoffset: 0; stroke-linejoin: miter; stroke-miterlimit: 4; fill: rgb(255,193,7); fill-rule: nonzero; opacity: 0.3;" vector-effect="non-scaling-stroke"  transform=" translate(-257.27, -169.93)" d="M 249.191579 161.852111 L 265.339079 161.852111 L 265.339079 177.999611 L 249.191579 177.999611 z" stroke-linecap="round" />
</g>
		<g transform="matrix(0.96 0.28 -0.28 0.96 8.89 -20.05)"  >
<path style="stroke: none; stroke-width: 1; stroke-dasharray: none; stroke-linecap: butt; stroke-dashoffset: 0; stroke-linejoin: miter; stroke-miterlimit: 4; fill: rgb(255,255,255); fill-rule: nonzero; opacity: 1;" vector-effect="non-scaling-stroke"  transform=" translate(-248.89, -159.95)" d="M 237.472537 121.334214 L 260.314037 121.334214 L 260.314037 198.567714 L 237.472537 198.567714 z" stroke-linecap="round" />
</g>
		<g transform="matrix(0.96 0.28 -0.28 0.96 17.13 -48.16)"  >
<path style="stroke: none; stroke-width: 1; stroke-dasharray: none; stroke-linecap: butt; stroke-dashoffset: 0; stroke-linejoin: miter; stroke-miterlimit: 4; fill: rgb(255,72,66); fill-rule: nonzero; opacity: 1;" vector-effect="non-scaling-stroke"  transform=" translate(-257.13, -131.84)" d="M 249.053192 123.761554 L 265.200692 123.761554 L 265.200692 139.909054 L 249.053192 139.909054 z" stroke-linecap="round" />
</g>
		<g transform="matrix(0.96 0.28 -0.28 0.96 11.66 -29.45)"  >
<path style="stroke: none; stroke-width: 1; stroke-dasharray: none; stroke-linecap: butt; stroke-dashoffset: 0; stroke-linejoin: miter; stroke-miterlimit: 4; fill: rgb(255,72,66); fill-rule: nonzero; opacity: 0.5;" vector-effect="non-scaling-stroke"  transform=" translate(-251.66, -150.55)" d="M 243.584192 142.473554 L 259.731692 142.473554 L 259.731692 158.621053 L 243.584192 158.621053 z" stroke-linecap="round" />
</g>
		<g transform="matrix(0.96 0.28 -0.28 0.96 6.19 -10.74)"  >
<path style="stroke: none; stroke-width: 1; stroke-dasharray: none; stroke-linecap: butt; stroke-dashoffset: 0; stroke-linejoin: miter; stroke-miterlimit: 4; fill: rgb(255,72,66); fill-rule: nonzero; opacity: 0.3;" vector-effect="non-scaling-stroke"  transform=" translate(-246.19, -169.26)" d="M 238.116192 161.182554 L 254.263692 161.182554 L 254.263692 177.330054 L 238.116192 177.330054 z" stroke-linecap="round" />
</g>
		<g transform="matrix(1 0.08 -0.08 1 1.52 -19.74)"  >
<path style="stroke: none; stroke-width: 1; stroke-dasharray: none; stroke-linecap: butt; stroke-dashoffset: 0; stroke-linejoin: miter; stroke-miterlimit: 4; fill: rgb(255,255,255); fill-rule: nonzero; opacity: 1;" vector-effect="non-scaling-stroke"  transform=" translate(-241.52, -160.26)" d="M 230.099192 121.641542 L 252.940692 121.641542 L 252.940692 198.875042 L 230.099192 198.875042 z" stroke-linecap="round" />
</g>
		<g transform="matrix(1 0.08 -0.08 1 3.87 -48.94)"  >
<path style="stroke: none; stroke-width: 1; stroke-dasharray: none; stroke-linecap: butt; stroke-dashoffset: 0; stroke-linejoin: miter; stroke-miterlimit: 4; fill: rgb(24,144,255); fill-rule: nonzero; opacity: 1;" vector-effect="non-scaling-stroke"  transform=" translate(-243.87, -131.06)" d="M 235.800489 122.985499 L 251.947989 122.985499 L 251.947989 139.132999 L 235.800489 139.132999 z" stroke-linecap="round" />
</g>
		<g transform="matrix(1 0.08 -0.08 1 2.31 -29.51)"  >
<path style="stroke: none; stroke-width: 1; stroke-dasharray: none; stroke-linecap: butt; stroke-dashoffset: 0; stroke-linejoin: miter; stroke-miterlimit: 4; fill: rgb(24,144,255); fill-rule: nonzero; opacity: 0.5;" vector-effect="non-scaling-stroke"  transform=" translate(-242.31, -150.49)" d="M 234.234488 142.413498 L 250.381988 142.413498 L 250.381988 158.560998 L 234.234488 158.560998 z" stroke-linecap="round" />
</g>
		<g transform="matrix(1 0.08 -0.08 1 0.75 -10.08)"  >
<path style="stroke: none; stroke-width: 1; stroke-dasharray: none; stroke-linecap: butt; stroke-dashoffset: 0; stroke-linejoin: miter; stroke-miterlimit: 4; fill: rgb(24,144,255); fill-rule: nonzero; opacity: 0.3;" vector-effect="non-scaling-stroke"  transform=" translate(-240.75, -169.92)" d="M 232.672488 161.846499 L 248.819988 161.846499 L 248.819988 177.993999 L 232.672488 177.993999 z" stroke-linecap="round" />
</g>
		<g transform="matrix(1 -0.05 0.05 1 -3.84 -18)"  >
<path style="stroke: none; stroke-width: 1; stroke-dasharray: none; stroke-linecap: butt; stroke-dashoffset: 0; stroke-linejoin: miter; stroke-miterlimit: 4; fill: rgb(255,255,255); fill-rule: nonzero; opacity: 1;" vector-effect="non-scaling-stroke"  transform=" translate(-236.16, -162)" d="M 224.736657 123.384871 L 247.578157 123.384871 L 247.578157 200.618371 L 224.736657 200.618371 z" stroke-linecap="round" />
</g>
		<g transform="matrix(1 -0.05 0.05 1 -5.17 -47.27)"  >
<path style="stroke: none; stroke-width: 1; stroke-dasharray: none; stroke-linecap: butt; stroke-dashoffset: 0; stroke-linejoin: miter; stroke-miterlimit: 4; fill: rgb(0,167,111); fill-rule: nonzero; opacity: 1;" vector-effect="non-scaling-stroke"  transform=" translate(-234.83, -132.73)" d="M 226.751283 124.659968 L 242.898783 124.659968 L 242.898783 140.807468 L 226.751283 140.807468 z" stroke-linecap="round" />
</g>
		<g transform="matrix(1 -0.05 0.05 1 -3.61 -28.44)"  >
<path style="stroke: none; stroke-width: 1; stroke-dasharray: none; stroke-linecap: butt; stroke-dashoffset: 0; stroke-linejoin: miter; stroke-miterlimit: 4; fill: rgb(0,167,111); fill-rule: nonzero; opacity: 0.5;" vector-effect="non-scaling-stroke"  transform=" translate(-236.39, -151.56)" d="M 228.305601 143.479224 L 244.473301 143.479224 L 244.473301 159.646924 L 228.305601 159.646924 z" stroke-linecap="round" />
</g>
		<g transform="matrix(1 -0.05 0.05 1 -3.4 -8.32)"  >
<path style="stroke: none; stroke-width: 1; stroke-dasharray: none; stroke-linecap: butt; stroke-dashoffset: 0; stroke-linejoin: miter; stroke-miterlimit: 4; fill: rgb(0,167,111); fill-rule: nonzero; opacity: 0.3;" vector-effect="non-scaling-stroke"  transform=" translate(-236.6, -171.68)" d="M 228.525282 163.608968 L 244.672782 163.608968 L 244.672782 179.756468 L 228.525282 179.756468 z" stroke-linecap="round" />
</g>
		<g transform="matrix(1 0 0 1 -60.05 11.86)"  >
<path style="stroke: none; stroke-width: 1; stroke-dasharray: none; stroke-linecap: butt; stroke-dashoffset: 0; stroke-linejoin: miter; stroke-miterlimit: 4; fill: rgb(244,246,248); fill-rule: nonzero; opacity: 1;" vector-effect="non-scaling-stroke"  transform=" translate(-179.95, -191.86)" d="M 232.679 225.726 L 212.385 233.577 L 182.724 245.043 C 181.60299999999998 242.95000000000002 179.953 240.122 177.911 236.746 C 170.885 225.104 159.261 206.996 148.91 191.08100000000002 C 137.25 173.14300000000003 127.214 158.00600000000003 127.214 158.00600000000003 L 134.47899999999998 155.91300000000004 L 193.825 138.68300000000005 L 232.67899999999997 225.72600000000006 z" stroke-linecap="round" />
</g>
		<g transform="matrix(1 0 0 1 -56.42 7.73)"  >
<path style="stroke: none; stroke-width: 1; stroke-dasharray: none; stroke-linecap: butt; stroke-dashoffset: 0; stroke-linejoin: miter; stroke-miterlimit: 4; fill: rgb(0,0,0); fill-rule: nonzero; opacity: 0.1;" vector-effect="non-scaling-stroke"  transform=" translate(-183.58, -187.73)" d="M 232.679 225.726 L 212.385 233.577 C 201.0478973374139 235.93892901582316 189.47869459259462 237.00211204268584 177.90099999999998 236.746 C 170.87499999999997 225.104 159.25099999999998 206.996 148.90099999999998 191.08100000000002 L 134.481 155.901 L 193.824 138.68300000000002 L 232.679 225.72600000000003 z" stroke-linecap="round" />
</g>
		<g transform="matrix(1 0 0 1 -50.28 2.96)"  >
<path style="stroke: none; stroke-width: 1; stroke-dasharray: none; stroke-linecap: butt; stroke-dashoffset: 0; stroke-linejoin: miter; stroke-miterlimit: 4; fill: rgb(0,167,111); fill-rule: nonzero; opacity: 1;" vector-effect="non-scaling-stroke"  transform=" translate(-189.72, -182.96)" d="M 247.777 220.841 C 247.777 220.841 216.25099999999998 239.491 169.18099999999998 235.273 L 131.65599999999998 143.78699999999998 L 149.64 140.69599999999997 L 211.808 130.01899999999998 L 247.087 219.06199999999998 L 247.777 220.84099999999998 z" stroke-linecap="round" />
</g>
		<g transform="matrix(1 0 0 1 -41.64 -5.34)"  >
<path style="stroke: none; stroke-width: 1; stroke-dasharray: none; stroke-linecap: butt; stroke-dashoffset: 0; stroke-linejoin: miter; stroke-miterlimit: 4; fill: rgb(255,72,66); fill-rule: nonzero; opacity: 0.1;" vector-effect="non-scaling-stroke"  transform=" translate(-198.36, -174.66)" d="M 247.075 219.074 C 239.65099999999998 219.43900000000002 231.06199999999998 219.40300000000002 222.421 218.372 C 213.07 217.27100000000002 203.664 215.00500000000002 195.601 210.84900000000002 C 188.859 207.37800000000001 183.095 203.60200000000003 178.069 199.073 C 164.99499999999998 187.31400000000002 156.90499999999997 170.494 149.64 140.708 L 211.808 130.031 L 247.075 219.074 z" stroke-linecap="round" />
</g>
		<g transform="matrix(1 0 0 1 -32.19 -20)"  >
<path style="stroke: none; stroke-width: 1; stroke-dasharray: none; stroke-linecap: butt; stroke-dashoffset: 0; stroke-linejoin: miter; stroke-miterlimit: 4; fill: rgb(255,255,255); fill-rule: nonzero; opacity: 1;" vector-effect="non-scaling-stroke"  transform=" translate(-207.81, -160)" d="M 270.203 213.959 C 270.203 213.959 246.96399999999997 218.50900000000001 223.30899999999997 215.708 C 213.95799999999997 214.608 204.55199999999996 212.341 196.48899999999998 208.186 C 189.74699999999999 204.715 183.986 200.93900000000002 178.95699999999997 196.40900000000002 C 162.77599999999995 181.85200000000003 154.23199999999997 159.543 145.42099999999996 114.49100000000001 C 145.42099999999996 114.49100000000001 184.05399999999997 123.81600000000002 222.25699999999995 103.39000000000001 C 222.24499999999995 103.40500000000002 235.12199999999996 183.76300000000003 270.203 213.959 z" stroke-linecap="round" />
</g>
		<g transform="matrix(1 0 0 1 -42.61 -25)"  >
<path style="stroke: none; stroke-width: 1; stroke-dasharray: none; stroke-linecap: butt; stroke-dashoffset: 0; stroke-linejoin: miter; stroke-miterlimit: 4; fill: rgb(0,167,111); fill-rule: nonzero; opacity: 0.3;" vector-effect="non-scaling-stroke"  transform=" translate(-197.39, -155)" d="M 165.405 131.03 C 165.405 131.03 196.821 129.254 205.59199999999998 122.482 L 206.92299999999997 126.758 C 206.92299999999997 126.758 186.16499999999996 135.915 165.40499999999997 136.026 L 165.40499999999997 131.03 z M 165.405 152.137 C 165.405 152.137 195.822 150.472 218.804 139.371 L 219.581 141.14700000000002 C 219.581 141.14700000000002 201.344 151.794 165.40499999999997 154.58 L 165.40499999999997 152.137 z M 167.853 160.362 C 167.853 160.362 198.27100000000002 158.697 221.25 147.596 L 222.027 149.372 C 222.027 149.372 203.79 160.01500000000001 167.85299999999998 162.805 L 167.85299999999998 160.362 z M 170.299 168.599 C 170.299 168.599 200.716 166.933 223.698 155.833 L 224.472 157.608 C 224.472 157.608 206.235 168.255 170.299 171.041 L 170.299 168.599 z M 172.748 176.835 C 172.748 176.835 203.165 175.17000000000002 226.144 164.06900000000002 L 226.921 165.84500000000003 C 226.921 165.84500000000003 208.684 176.49200000000002 172.748 179.27800000000002 L 172.748 176.835 z M 175.193 185.075 C 175.193 185.075 205.61 183.41 228.592 172.309 L 229.366 174.085 C 229.366 174.085 211.12900000000002 184.728 175.193 187.518 L 175.193 185.075 z" stroke-linecap="round" />
</g>
		<g transform="matrix(1 0 0 1 143.55 112.52)"  >
<path style="stroke: none; stroke-width: 1; stroke-dasharray: none; stroke-linecap: butt; stroke-dashoffset: 0; stroke-linejoin: miter; stroke-miterlimit: 4; fill: rgb(0,167,111); fill-rule: nonzero; opacity: 1;" vector-effect="non-scaling-stroke"  transform=" translate(-383.55, -292.52)" d="M 389.069 287.344 C 389.069 287.344 376.428 286.582 377.91700000000003 295.441 C 377.91700000000003 295.441 377.61800000000005 297.00399999999996 379.04100000000005 297.71599999999995 C 379.04100000000005 297.71599999999995 379.06200000000007 297.05799999999994 380.33600000000007 297.2819999999999 C 380.7900000000001 297.3589999999999 381.25200000000007 297.3809999999999 381.71100000000007 297.3479999999999 C 382.33099717642 297.306902679738 382.9202705841928 297.0630411740765 383.3880000000001 296.6539999999999 C 383.8560000000001 296.2449999999999 386.9430000000001 295.18599999999986 388.32400000000007 289.3799999999999 C 388.32400000000007 289.3799999999999 389.3470000000001 288.1129999999999 389.30500000000006 287.78699999999986 L 387.17300000000006 288.68399999999986 C 387.17300000000006 288.68399999999986 387.9030000000001 290.2239999999999 387.32900000000006 291.49999999999983 C 387.32900000000006 291.49999999999983 387.26000000000005 288.7409999999998 386.8500000000001 288.80899999999986 C 386.76700000000005 288.80899999999986 385.7410000000001 289.34199999999987 385.7410000000001 289.34199999999987 C 385.7410000000001 289.34199999999987 386.9940000000001 292.03199999999987 386.0400000000001 293.96999999999986 C 386.0400000000001 293.96999999999986 386.39900000000006 290.6659999999999 385.34100000000007 289.53599999999983 L 383.84600000000006 290.4119999999998 C 383.84600000000006 290.4119999999998 385.31100000000004 293.1799999999998 384.31800000000004 295.4409999999998 C 384.31800000000004 295.4409999999998 384.57200000000006 291.97599999999983 383.52900000000005 290.6239999999998 L 382.16800000000006 291.6859999999998 C 382.16800000000006 291.6859999999998 383.5470000000001 294.4149999999998 382.70700000000005 296.2899999999998 C 382.70700000000005 296.2899999999998 382.59600000000006 292.2539999999998 381.87200000000007 291.9489999999998 C 381.87200000000007 291.9489999999998 380.6770000000001 292.99799999999976 380.50300000000004 293.4429999999998 C 380.50300000000004 293.4429999999998 381.44500000000005 295.42299999999983 380.85900000000004 296.4689999999998 C 380.85900000000004 296.4689999999998 380.50000000000006 293.77799999999985 380.20700000000005 293.77799999999985 C 380.20700000000005 293.77799999999985 379.011 295.57199999999983 378.898 296.76799999999986 C 378.898 296.76799999999986 378.949 294.9499999999999 379.92 293.59599999999983 C 379.23546245396494 293.72702755655394 378.6038097973294 294.0543195271539 378.10200000000003 294.53799999999984 C 378.10200000000003 294.53799999999984 378.288 293.27599999999984 380.213 293.16799999999984 C 380.213 293.16799999999984 381.194 291.81699999999984 381.454 291.73299999999983 C 381.454 291.73299999999983 379.54 291.5749999999998 378.38 292.0889999999998 C 378.38 292.0889999999998 379.403 290.8929999999998 381.807 291.4399999999998 L 383.149 290.34599999999983 C 383.149 290.34599999999983 380.629 289.99899999999985 379.561 290.38199999999983 C 379.561 290.38199999999983 380.78999999999996 289.3299999999998 383.51099999999997 290.08299999999986 L 384.97299999999996 289.20999999999987 C 384.97299999999996 289.20999999999987 382.82599999999996 288.74699999999984 381.54699999999997 288.9109999999999 C 381.54699999999997 288.9109999999999 382.895 288.1819999999999 385.40299999999996 288.9709999999999 L 386.44699999999995 288.50099999999986 C 386.44699999999995 288.50099999999986 384.87399999999997 288.2019999999999 384.41399999999993 288.14299999999986 C 383.9529999999999 288.08299999999986 383.92599999999993 287.9689999999999 383.92599999999993 287.9689999999999 C 384.92306777916 287.80101003551255 385.9472404891483 287.9149609389911 386.8829999999999 288.2979999999999 C 386.8829999999999 288.2979999999999 389.1049999999999 287.4849999999999 389.0689999999999 287.3439999999999 z" stroke-linecap="round" />
</g>
		<g transform="matrix(1 0 0 1 140.36 118.49)"  >
<ellipse style="stroke: none; stroke-width: 1; stroke-dasharray: none; stroke-linecap: butt; stroke-dashoffset: 0; stroke-linejoin: miter; stroke-miterlimit: 4; fill: rgb(0,167,111); fill-rule: nonzero; opacity: 0.1;" vector-effect="non-scaling-stroke"  cx="0" cy="0" rx="8.945" ry="1.513" />
</g>
		<g transform="matrix(1 0 0 1 151.85 81.02)"  >
<path style="stroke: none; stroke-width: 1; stroke-dasharray: none; stroke-linecap: butt; stroke-dashoffset: 0; stroke-linejoin: miter; stroke-miterlimit: 4; fill: rgb(0,167,111); fill-rule: nonzero; opacity: 1;" vector-effect="non-scaling-stroke"  transform=" translate(-391.85, -261.02)" d="M 394.956 258.102 C 394.956 258.102 387.831 257.67199999999997 388.677 262.667 C 388.58778940439066 263.1861165108566 388.84237504109325 263.70376052335973 389.308 263.95 C 389.308 263.95 389.323 263.579 390.041 263.705 C 390.296 263.74699999999996 390.556 263.75899999999996 390.815 263.741 C 391.164 263.71799999999996 391.496 263.582 391.76 263.352 C 392.024 263.12199999999996 393.763 262.524 394.543 259.25 C 394.543 259.25 395.12 258.536 395.096 258.353 L 393.9 258.86400000000003 C 393.9 258.86400000000003 394.31 259.73400000000004 393.98699999999997 260.45500000000004 C 393.98699999999997 260.45500000000004 393.948 258.89700000000005 393.71799999999996 258.93300000000005 C 393.66999999999996 258.93300000000005 393.09299999999996 259.232 393.09299999999996 259.232 C 393.09299999999996 259.232 393.799 260.72700000000003 393.26599999999996 261.84200000000004 C 393.26599999999996 261.84200000000004 393.46999999999997 259.98 392.87199999999996 259.34000000000003 L 392.02599999999995 259.836 C 392.02599999999995 259.836 392.85099999999994 261.397 392.292 262.67 C 392.292 262.67 392.43499999999995 260.71500000000003 391.84599999999995 259.956 L 391.08099999999996 260.55400000000003 C 391.08099999999996 260.55400000000003 391.85499999999996 262.093 391.37999999999994 263.14900000000006 C 391.37999999999994 263.14900000000006 391.31699999999995 260.8740000000001 390.91099999999994 260.70300000000003 C 390.6201643628352 260.9489234390487 390.3599624803839 261.2289342390028 390.13599999999997 261.53700000000003 C 390.13599999999997 261.53700000000003 390.66799999999995 262.65500000000003 390.34 263.244 C 390.34 263.244 390.13599999999997 261.72900000000004 389.972 261.723 C 389.972 261.723 389.30199999999996 262.724 389.233 263.41200000000003 C 389.2659501526971 262.77397964278174 389.464836848141 262.155604024712 389.81 261.61800000000005 C 389.42359111865704 261.6910823210951 389.0671667643541 261.8760752542553 388.785 262.15000000000003 C 388.785 262.15000000000003 388.889 261.439 389.98100000000005 261.379 C 389.98100000000005 261.379 390.53400000000005 260.61600000000004 390.68000000000006 260.569 C 390.68000000000006 260.569 389.60100000000006 260.47900000000004 388.9460000000001 260.769 C 388.9460000000001 260.769 389.5230000000001 260.099 390.8780000000001 260.404 L 391.6370000000001 259.78499999999997 C 391.6370000000001 259.78499999999997 390.2140000000001 259.59099999999995 389.6130000000001 259.806 C 389.6130000000001 259.806 390.30700000000013 259.20799999999997 391.8400000000001 259.645 L 392.6660000000001 259.15099999999995 C 392.0309264362705 259.0120868212267 391.3803938518254 258.95695124301017 390.7310000000001 258.98699999999997 C 390.7310000000001 258.98699999999997 391.4940000000001 258.57399999999996 392.9050000000001 259.02 L 393.5030000000001 258.757 C 393.5030000000001 258.757 392.6060000000001 258.58 392.3550000000001 258.55400000000003 C 392.10300000000007 258.52700000000004 392.0800000000001 258.45500000000004 392.0800000000001 258.45500000000004 C 392.64240274070056 258.3609753623437 393.2198690366252 258.42502288317473 393.7480000000001 258.64000000000004 C 393.7480000000001 258.64000000000004 394.98000000000013 258.18000000000006 394.95600000000013 258.10200000000003 z" stroke-linecap="round" />
</g>
		<g transform="matrix(1 0 0 1 150.05 84.38)"  >
<ellipse style="stroke: none; stroke-width: 1; stroke-dasharray: none; stroke-linecap: butt; stroke-dashoffset: 0; stroke-linejoin: miter; stroke-miterlimit: 4; fill: rgb(0,167,111); fill-rule: nonzero; opacity: 0.1;" vector-effect="non-scaling-stroke"  cx="0" cy="0" rx="5.044" ry="1" />
</g>
		<g transform="matrix(1 0 0 1 109.15 85.96)"  >
<path style="stroke: none; stroke-width: 1; stroke-dasharray: none; stroke-linecap: butt; stroke-dashoffset: 0; stroke-linejoin: miter; stroke-miterlimit: 4; fill: rgb(0,167,111); fill-rule: nonzero; opacity: 1;" vector-effect="non-scaling-stroke"  transform=" translate(-349.15, -265.96)" d="M 352.896 262.437 C 352.896 262.437 344.29200000000003 261.91700000000003 345.308 267.947 C 345.2003291671671 268.57404337916887 345.5082589879016 269.1991853088121 346.07099999999997 269.496 C 346.07099999999997 269.496 346.07099999999997 269.04699999999997 346.96799999999996 269.197 C 347.277 269.249 347.59099999999995 269.264 347.90299999999996 269.242 C 348.3253473903848 269.21430744345827 348.72676039963244 269.048047939628 349.04499999999996 268.769 C 349.36299999999994 268.49 351.46399999999994 267.771 352.40599999999995 263.818 C 352.40599999999995 263.818 353.10299999999995 262.957 353.0729999999999 262.733 L 351.6049999999999 263.355 C 351.6049999999999 263.355 352.1009999999999 264.401 351.7089999999999 265.271 C 351.7089999999999 265.271 351.6609999999999 263.394 351.38299999999987 263.43600000000004 C 351.3269999999999 263.43600000000004 350.6299999999999 263.8 350.6299999999999 263.8 C 350.6299999999999 263.8 351.48199999999986 265.624 350.8389999999999 266.952 C 350.8389999999999 266.952 351.0839999999999 264.703 350.36399999999986 263.932 L 349.34099999999984 264.53000000000003 C 349.34099999999984 264.53000000000003 350.3369999999998 266.41600000000005 349.66099999999983 267.95300000000003 C 349.66099999999983 267.95300000000003 349.8349999999998 265.59400000000005 349.1259999999998 264.66400000000004 L 348.1989999999998 265.38800000000003 C 348.1989999999998 265.38800000000003 349.1379999999998 267.24500000000006 348.5639999999998 268.521 C 348.5639999999998 268.521 348.4919999999998 265.774 347.9989999999998 265.567 C 347.9989999999998 265.567 347.1889999999998 266.282 347.0659999999998 266.575 C 347.0659999999998 266.575 347.7059999999998 267.923 347.3079999999998 268.635 C 347.3079999999998 268.635 347.0629999999998 266.805 346.86299999999983 266.796 C 346.86299999999983 266.796 346.05899999999986 268.01 345.96599999999984 268.83799999999997 C 346.00599999999986 268.07 346.2459999999998 267.32599999999996 346.66299999999984 266.679 C 346.1973681653769 266.76811263979056 345.768030290916 266.9916464481131 345.4279999999998 267.32199999999995 C 345.4279999999998 267.32199999999995 345.5529999999998 266.46399999999994 346.86299999999983 266.38899999999995 C 346.86299999999983 266.38899999999995 347.5299999999998 265.46899999999994 347.70899999999983 265.41499999999996 C 347.70899999999983 265.41499999999996 346.40599999999984 265.304 345.6159999999998 265.65399999999994 C 345.6159999999998 265.65399999999994 346.30999999999983 264.8469999999999 347.9449999999998 265.21399999999994 L 348.85999999999984 264.4669999999999 C 348.85999999999984 264.4669999999999 347.1469999999998 264.2339999999999 346.41799999999984 264.49099999999993 C 346.41799999999984 264.49099999999993 347.2549999999998 263.77599999999995 349.10799999999983 264.29999999999995 L 350.1039999999998 263.70199999999994 C 350.1039999999998 263.70199999999994 348.6419999999998 263.3879999999999 347.76899999999983 263.5009999999999 C 347.76899999999983 263.5009999999999 348.6899999999998 263.00499999999994 350.39399999999983 263.5429999999999 L 351.10499999999985 263.2229999999999 C 351.10499999999985 263.2229999999999 350.03499999999985 263.0139999999999 349.72099999999983 262.9809999999999 C 349.4069999999998 262.94799999999987 349.3919999999998 262.86199999999985 349.3919999999998 262.86199999999985 C 350.0701557297432 262.74668816670385 350.76704307439906 262.82323493766256 351.4039999999998 263.08299999999986 C 351.4039999999998 263.08299999999986 352.92299999999983 262.52999999999986 352.89599999999984 262.43699999999984 z" stroke-linecap="round" />
</g>
		<g transform="matrix(1 0 0 1 106.97 90.02)"  >
<ellipse style="stroke: none; stroke-width: 1; stroke-dasharray: none; stroke-linecap: butt; stroke-dashoffset: 0; stroke-linejoin: miter; stroke-miterlimit: 4; fill: rgb(0,167,111); fill-rule: nonzero; opacity: 0.1;" vector-effect="non-scaling-stroke"  cx="0" cy="0" rx="6.09" ry="1.028" />
</g>
		<g transform="matrix(0.31 -0.95 0.95 0.31 89.44 -65.13)"  >
<rect style="stroke: none; stroke-width: 1; stroke-dasharray: none; stroke-linecap: butt; stroke-dashoffset: 0; stroke-linejoin: miter; stroke-miterlimit: 4; fill: rgb(255,255,255); fill-rule: nonzero; opacity: 1;" vector-effect="non-scaling-stroke"  x="-25.513" y="-45.656" rx="4.737" ry="4.737" width="51.026" height="91.312" />
</g>
		<g transform="matrix(1 0 0 1 63.61 -76.49)"  >
<circle style="stroke: none; stroke-width: 1; stroke-dasharray: none; stroke-linecap: butt; stroke-dashoffset: 0; stroke-linejoin: miter; stroke-miterlimit: 4; fill: rgb(0,167,111); fill-rule: nonzero; opacity: 0.2;" vector-effect="non-scaling-stroke"  cx="0" cy="0" r="9.376" />
</g>
		<g transform="matrix(0.31 -0.95 0.95 0.31 105.87 -73.09)"  >
<path style="stroke: none; stroke-width: 1; stroke-dasharray: none; stroke-linecap: butt; stroke-dashoffset: 0; stroke-linejoin: miter; stroke-miterlimit: 4; fill: rgb(0,167,111); fill-rule: nonzero; opacity: 0.2;" vector-effect="non-scaling-stroke"  transform=" translate(-345.87, -106.91)" d="M 344.582495 86.4883769 L 347.150665 86.4883769 L 347.150665 127.336977 L 344.582495 127.336977 z" stroke-linecap="round" />
</g>
		<g transform="matrix(0.31 -0.95 0.95 0.31 94.31 -69.96)"  >
<path style="stroke: none; stroke-width: 1; stroke-dasharray: none; stroke-linecap: butt; stroke-dashoffset: 0; stroke-linejoin: miter; stroke-miterlimit: 4; fill: rgb(0,167,111); fill-rule: nonzero; opacity: 0.2;" vector-effect="non-scaling-stroke"  transform=" translate(-334.31, -110.04)" d="M 333.028401 99.6373982 L 335.596571 99.6373982 L 335.596571 120.445898 L 333.028401 120.445898 z" stroke-linecap="round" />
</g>
		<g transform="matrix(0.31 -0.95 0.95 0.31 98.39 -61.74)"  >
<path style="stroke: none; stroke-width: 1; stroke-dasharray: none; stroke-linecap: butt; stroke-dashoffset: 0; stroke-linejoin: miter; stroke-miterlimit: 4; fill: rgb(0,167,111); fill-rule: nonzero; opacity: 0.2;" vector-effect="non-scaling-stroke"  transform=" translate(-338.39, -118.26)" d="M 337.109071 101.431004 L 339.677241 101.431004 L 339.677241 135.086304 L 337.109071 135.086304 z" stroke-linecap="round" />
</g>
		<g transform="matrix(0.31 -0.95 0.95 0.31 99.79 -54.4)"  >
<path style="stroke: none; stroke-width: 1; stroke-dasharray: none; stroke-linecap: butt; stroke-dashoffset: 0; stroke-linejoin: miter; stroke-miterlimit: 4; fill: rgb(0,167,111); fill-rule: nonzero; opacity: 0.2;" vector-effect="non-scaling-stroke"  transform=" translate(-339.79, -125.6)" d="M 338.505494 105.174377 L 341.073664 105.174377 L 341.073664 146.022978 L 338.505494 146.022978 z" stroke-linecap="round" />
</g>
		<g transform="matrix(0.31 -0.95 0.95 0.31 110.54 -39.7)"  >
<path style="stroke: none; stroke-width: 1; stroke-dasharray: none; stroke-linecap: butt; stroke-dashoffset: 0; stroke-linejoin: miter; stroke-miterlimit: 4; fill: rgb(0,167,111); fill-rule: nonzero; opacity: 0.5;" vector-effect="non-scaling-stroke"  transform=" translate(-350.54, -140.3)" d="M 348.060839 134.648161 L 353.026769 134.648161 L 353.026769 145.952261 L 348.060839 145.952261 z" stroke-linecap="round" />
</g>
		<g transform="matrix(0.54 -0.84 0.84 0.54 76.7 33.64)"  >
<rect style="stroke: none; stroke-width: 1; stroke-dasharray: none; stroke-linecap: butt; stroke-dashoffset: 0; stroke-linejoin: miter; stroke-miterlimit: 4; fill: rgb(255,255,255); fill-rule: nonzero; opacity: 1;" vector-effect="non-scaling-stroke"  x="-25.15" y="-39.1525" rx="4" ry="4" width="50.3" height="78.305" />
</g>
		<g transform="matrix(0.54 -0.84 0.84 0.54 45.15 25.56)"  >
<path style="stroke: none; stroke-width: 1; stroke-dasharray: none; stroke-linecap: butt; stroke-dashoffset: 0; stroke-linejoin: miter; stroke-miterlimit: 4; fill: rgb(223,227,232); fill-rule: nonzero; opacity: 1;" vector-effect="non-scaling-stroke"  transform=" translate(-285.15, -205.56)" d="M 278.038439 203.88874 L 292.269539 203.88874 L 292.269539 207.23723 L 278.038439 207.23723 z" stroke-linecap="round" />
</g>
		<g transform="matrix(0.54 -0.84 0.84 0.54 58.64 20.74)"  >
<path style="stroke: none; stroke-width: 1; stroke-dasharray: none; stroke-linecap: butt; stroke-dashoffset: 0; stroke-linejoin: miter; stroke-miterlimit: 4; fill: rgb(223,227,232); fill-rule: nonzero; opacity: 1;" vector-effect="non-scaling-stroke"  transform=" translate(-298.64, -200.74)" d="M 283.007935 199.201889 L 314.262535 199.201889 L 314.262535 202.272339 L 283.007935 202.272339 z" stroke-linecap="round" />
</g>
		<g transform="matrix(0.54 -0.84 0.84 0.54 64.17 24.25)"  >
<path style="stroke: none; stroke-width: 1; stroke-dasharray: none; stroke-linecap: butt; stroke-dashoffset: 0; stroke-linejoin: miter; stroke-miterlimit: 4; fill: rgb(223,227,232); fill-rule: nonzero; opacity: 1;" vector-effect="non-scaling-stroke"  transform=" translate(-304.17, -204.25)" d="M 288.543935 202.715889 L 319.798535 202.715889 L 319.798535 205.786339 L 288.543935 205.786339 z" stroke-linecap="round" />
</g>
		<g transform="matrix(0.54 -0.84 0.84 0.54 69.71 27.77)"  >
<path style="stroke: none; stroke-width: 1; stroke-dasharray: none; stroke-linecap: butt; stroke-dashoffset: 0; stroke-linejoin: miter; stroke-miterlimit: 4; fill: rgb(223,227,232); fill-rule: nonzero; opacity: 1;" vector-effect="non-scaling-stroke"  transform=" translate(-309.71, -207.77)" d="M 294.078936 206.235889 L 325.333536 206.235889 L 325.333536 209.306339 L 294.078936 209.306339 z" stroke-linecap="round" />
</g>
		<g transform="matrix(0.54 -0.84 0.84 0.54 75.49 32.94)"  >
<path style="stroke: none; stroke-width: 1; stroke-dasharray: none; stroke-linecap: butt; stroke-dashoffset: 0; stroke-linejoin: miter; stroke-miterlimit: 4; fill: rgb(223,227,232); fill-rule: nonzero; opacity: 1;" vector-effect="non-scaling-stroke"  transform=" translate(-315.49, -212.94)" d="M 299.879919 211.40702 L 331.090719 211.40702 L 331.090719 214.47316 L 299.879919 214.47316 z" stroke-linecap="round" />
</g>
		<g transform="matrix(0.54 -0.84 0.84 0.54 80.78 34.8)"  >
<path style="stroke: none; stroke-width: 1; stroke-dasharray: none; stroke-linecap: butt; stroke-dashoffset: 0; stroke-linejoin: miter; stroke-miterlimit: 4; fill: rgb(244,246,248); fill-rule: nonzero; opacity: 1;" vector-effect="non-scaling-stroke"  transform=" translate(-320.78, -214.8)" d="M 305.149936 213.268889 L 336.404536 213.268889 L 336.404536 216.339339 L 305.149936 216.339339 z" stroke-linecap="round" />
</g>
		<g transform="matrix(0.54 -0.84 0.84 0.54 86.31 38.32)"  >
<path style="stroke: none; stroke-width: 1; stroke-dasharray: none; stroke-linecap: butt; stroke-dashoffset: 0; stroke-linejoin: miter; stroke-miterlimit: 4; fill: rgb(244,246,248); fill-rule: nonzero; opacity: 1;" vector-effect="non-scaling-stroke"  transform=" translate(-326.31, -218.32)" d="M 310.685935 216.782889 L 341.940535 216.782889 L 341.940535 219.853339 L 310.685935 219.853339 z" stroke-linecap="round" />
</g>
		<g transform="matrix(0.54 -0.84 0.84 0.54 105.46 34.45)"  >
<path style="stroke: none; stroke-width: 1; stroke-dasharray: none; stroke-linecap: butt; stroke-dashoffset: 0; stroke-linejoin: miter; stroke-miterlimit: 4; fill: rgb(223,227,232); fill-rule: nonzero; opacity: 1;" vector-effect="non-scaling-stroke"  transform=" translate(-345.46, -214.45)" d="M 341.417983 210.406958 L 349.511163 210.406958 L 349.511163 218.500138 L 341.417983 218.500138 z" stroke-linecap="round" />
</g>
		<g transform="matrix(1 0 0 1 -28.88 45.15)"  >
<path style="stroke: none; stroke-width: 1; stroke-dasharray: none; stroke-linecap: butt; stroke-dashoffset: 0; stroke-linejoin: miter; stroke-miterlimit: 4; fill: rgb(0,167,111); fill-rule: nonzero; opacity: 1;" vector-effect="non-scaling-stroke"  transform=" translate(-211.12, -225.15)" d="M 269.277 168.76 L 223.51 169.253 C 221.7966857470039 169.27108174146744 220.41700046917416 170.6645906274461 220.416 172.378 L 220.416 176.16 C 220.41488700650623 177.8561998196272 219.06168586757818 179.24223272389315 217.36599999999999 179.284 L 184.34199999999998 180.076 C 182.90151206068583 180.1125229422943 181.62291859774183 179.15905162970148 181.24699999999999 177.768 L 179.696 172.067 C 179.323869096683 170.69137696701839 178.06796637828757 169.74194248485114 176.643 169.75900000000001 L 132.53 170.234 C 131.61517598255114 170.2430458125506 130.75026175832167 170.65252057262924 130.16344235396758 171.35439506019767 C 129.5766229496135 172.05626954776614 129.32684284627288 172.98004229817127 129.48 173.882 L 147.22699999999998 278.331 C 147.48208153939524 279.829821174542 148.77764230057937 280.9283689512022 150.29799999999997 280.935 L 289.66099999999994 281.533 C 290.59474729816924 281.53543940473213 291.4807919046803 281.12073171030374 292.07707876042286 280.4021692890747 C 292.67336561616537 279.68360686784564 292.91757782164217 278.73628542544 292.74299999999994 277.819 L 272.37699999999995 171.298 C 272.0932216082941 169.81375392520826 270.78805846054735 168.74520422553692 269.27699999999993 168.76 z" stroke-linecap="round" />
</g>
		<g transform="matrix(1 0 0 1 -28.88 45.15)"  >
<path style="stroke: none; stroke-width: 1; stroke-dasharray: none; stroke-linecap: butt; stroke-dashoffset: 0; stroke-linejoin: miter; stroke-miterlimit: 4; fill: rgb(0,120,103); fill-rule: nonzero; opacity: 0.243;" vector-effect="non-scaling-stroke"  transform=" translate(-211.12, -225.15)" d="M 269.277 168.76 L 223.51 169.253 C 221.7966857470039 169.27108174146744 220.41700046917416 170.6645906274461 220.416 172.378 L 220.416 176.16 C 220.41488700650623 177.8561998196272 219.06168586757818 179.24223272389315 217.36599999999999 179.284 L 184.34199999999998 180.076 C 182.90151206068583 180.1125229422943 181.62291859774183 179.15905162970148 181.24699999999999 177.768 L 179.696 172.067 C 179.323869096683 170.69137696701839 178.06796637828757 169.74194248485114 176.643 169.75900000000001 L 132.53 170.234 C 131.61517598255114 170.2430458125506 130.75026175832167 170.65252057262924 130.16344235396758 171.35439506019767 C 129.5766229496135 172.05626954776614 129.32684284627288 172.98004229817127 129.48 173.882 L 147.22699999999998 278.331 C 147.48208153939524 279.829821174542 148.77764230057937 280.9283689512022 150.29799999999997 280.935 L 289.66099999999994 281.533 C 290.59474729816924 281.53543940473213 291.4807919046803 281.12073171030374 292.07707876042286 280.4021692890747 C 292.67336561616537 279.68360686784564 292.91757782164217 278.73628542544 292.74299999999994 277.819 L 272.37699999999995 171.298 C 272.0932216082941 169.81375392520826 270.78805846054735 168.74520422553692 269.27699999999993 168.76 z" stroke-linecap="round" />
</g>
		<g transform="matrix(1 0 0 1 -28.88 45.15)"  >
<linearGradient id="SVGID_linearGradient-2_4" gradientUnits="objectBoundingBox" gradientTransform="matrix(1 0 0 1 0 0)"  x1="0.30113" y1="0" x2="0.30113" y2="1">
<stop offset="0%" style="stop-color:rgb(0,0,0);stop-opacity: 0"/>
<stop offset="100%" style="stop-color:rgb(0,0,0);stop-opacity: 1"/>
</linearGradient>
<path style="stroke: none; stroke-width: 1; stroke-dasharray: none; stroke-linecap: butt; stroke-dashoffset: 0; stroke-linejoin: miter; stroke-miterlimit: 4; fill: url(#SVGID_linearGradient-2_4); fill-rule: nonzero; opacity: 0.32;" vector-effect="non-scaling-stroke"  transform=" translate(-211.12, -225.15)" d="M 269.277 168.76 L 223.51 169.253 C 221.7966857470039 169.27108174146744 220.41700046917416 170.6645906274461 220.416 172.378 L 220.416 176.16 C 220.41488700650623 177.8561998196272 219.06168586757818 179.24223272389315 217.36599999999999 179.284 L 184.34199999999998 180.076 C 182.90151206068583 180.1125229422943 181.62291859774183 179.15905162970148 181.24699999999999 177.768 L 179.696 172.067 C 179.323869096683 170.69137696701839 178.06796637828757 169.74194248485114 176.643 169.75900000000001 L 132.53 170.234 C 131.61517598255114 170.2430458125506 130.75026175832167 170.65252057262924 130.16344235396758 171.35439506019767 C 129.5766229496135 172.05626954776614 129.32684284627288 172.98004229817127 129.48 173.882 L 147.22699999999998 278.331 C 147.48208153939524 279.829821174542 148.77764230057937 280.9283689512022 150.29799999999997 280.935 L 289.66099999999994 281.533 C 290.59474729816924 281.53543940473213 291.4807919046803 281.12073171030374 292.07707876042286 280.4021692890747 C 292.67336561616537 279.68360686784564 292.91757782164217 278.73628542544 292.74299999999994 277.819 L 272.37699999999995 171.298 C 272.0932216082941 169.81375392520826 270.78805846054735 168.74520422553692 269.27699999999993 168.76 z" stroke-linecap="round" />
</g>
		<g transform="matrix(1 0 0 1 -120.41 78.66)"  >
<ellipse style="stroke: none; stroke-width: 1; stroke-dasharray: none; stroke-linecap: butt; stroke-dashoffset: 0; stroke-linejoin: miter; stroke-miterlimit: 4; fill: rgb(0,167,111); fill-rule: nonzero; opacity: 0.1;" vector-effect="non-scaling-stroke"  cx="0" cy="0" rx="4.846" ry="1" />
</g>
		<g transform="matrix(1 0 0 1 -138.97 80.55)"  >
<ellipse style="stroke: none; stroke-width: 1; stroke-dasharray: none; stroke-linecap: butt; stroke-dashoffset: 0; stroke-linejoin: miter; stroke-miterlimit: 4; fill: rgb(0,167,111); fill-rule: nonzero; opacity: 0.1;" vector-effect="non-scaling-stroke"  cx="0" cy="0" rx="4.846" ry="1" />
</g>
		<g transform="matrix(1 0 0 1 -131.54 85.9)"  >
<ellipse style="stroke: none; stroke-width: 1; stroke-dasharray: none; stroke-linecap: butt; stroke-dashoffset: 0; stroke-linejoin: miter; stroke-miterlimit: 4; fill: rgb(0,167,111); fill-rule: nonzero; opacity: 0.1;" vector-effect="non-scaling-stroke"  cx="0" cy="0" rx="3.444" ry="1" />
</g>
		<g transform="matrix(1 0 0 1 -150.81 85.43)"  >
<ellipse style="stroke: none; stroke-width: 1; stroke-dasharray: none; stroke-linecap: butt; stroke-dashoffset: 0; stroke-linejoin: miter; stroke-miterlimit: 4; fill: rgb(0,167,111); fill-rule: nonzero; opacity: 0.1;" vector-effect="non-scaling-stroke"  cx="0" cy="0" rx="3.444" ry="1" />
</g>
		<g transform="matrix(1 0 0 1 -148.03 62)"  >
<path style="stroke: none; stroke-width: 1; stroke-dasharray: none; stroke-linecap: butt; stroke-dashoffset: 0; stroke-linejoin: miter; stroke-miterlimit: 4; fill: rgb(0,167,111); fill-rule: nonzero; opacity: 1;" vector-effect="non-scaling-stroke"  transform=" translate(-91.97, -242)" d="M 100.925 260.398 C 100.925 260.398 107.721 238.11900000000003 99.86099999999999 229.19400000000002 C 93.97999999999999 222.51800000000003 87.30399999999999 223.317 84.314 224.14200000000002 C 82.7493243186484 224.559914293396 81.44661243995124 225.6429488883959 80.75 227.10500000000002 C 79.704 229.359 79.892 233.01800000000003 87.271 237.29100000000003 C 99.621 244.44200000000004 100.39 254.25100000000003 100.39 254.25100000000003 L 100.925 260.398 z" stroke-linecap="round" />
</g>
		<g transform="matrix(1 0 0 1 -145.99 63.85)"  >
<path style="stroke: rgb(0,75,80); stroke-width: 0.5; stroke-dasharray: none; stroke-linecap: round; stroke-dashoffset: 0; stroke-linejoin: miter; stroke-miterlimit: 4; fill: rgb(0,0,0); fill-rule: nonzero; opacity: 1;" vector-effect="non-scaling-stroke"  transform=" translate(-94.01, -243.85)" d="M 85.382 227.302 C 85.382 227.302 105.41300000000001 233.57999999999998 100.928 260.39799999999997 M 97.083 229.547 C 97.083 229.547 94.323 231.407 95.203 234.202 M 87.39 231.203 C 87.39 231.203 89.077 229.487 91.131 230.435 M 95.31 239.832 C 95.31 239.832 98.273 238.337 99.038 240.21099999999998 M 102.638 242.962 C 102.638 242.962 100.414 242.786 100.375 243.85899999999998" stroke-linecap="round" />
</g>
		<g transform="matrix(1 0 0 1 -144.81 72.65)"  >
<path style="stroke: none; stroke-width: 1; stroke-dasharray: none; stroke-linecap: butt; stroke-dashoffset: 0; stroke-linejoin: miter; stroke-miterlimit: 4; fill: rgb(0,167,111); fill-rule: nonzero; opacity: 1;" vector-effect="non-scaling-stroke"  transform=" translate(-95.19, -252.65)" d="M 101.2 260.575 C 101.2 260.575 93.239 244.38199999999998 91.053 244.72899999999998 C 90.01599999999999 244.89899999999997 89.53699999999999 245.92499999999998 89.319 246.94699999999997 C 89.05078484845032 248.27385590465073 89.20247575770162 249.65130722575523 89.753 250.88799999999998 C 90.883 253.48899999999998 93.918 258.407 101.2 260.575 z" stroke-linecap="round" />
</g>
		<g transform="matrix(1 0 0 1 -143.9 74.13)"  >
<path style="stroke: rgb(0,75,80); stroke-width: 0.5; stroke-dasharray: none; stroke-linecap: round; stroke-dashoffset: 0; stroke-linejoin: miter; stroke-miterlimit: 4; fill: rgb(0,0,0); fill-rule: nonzero; opacity: 1;" vector-effect="non-scaling-stroke"  transform=" translate(-96.1, -254.13)" d="M 91.113 247.808 C 91.113 247.808 99.466 259.923 101.081 260.455" stroke-linecap="round" />
</g>
		<g transform="matrix(1 0 0 1 -148.68 69.7)"  >
<path style="stroke: rgb(0,75,80); stroke-width: 0.5; stroke-dasharray: none; stroke-linecap: round; stroke-dashoffset: 0; stroke-linejoin: miter; stroke-miterlimit: 4; fill: rgb(0,0,0); fill-rule: nonzero; opacity: 1;" vector-effect="non-scaling-stroke"  transform=" translate(-91.32, -249.7)" d="M 90.344 249.701 L 92.293 249.701" stroke-linecap="round" />
</g>
		<g transform="matrix(1 0 0 1 -145.79 74.2)"  >
<path style="stroke: rgb(0,75,80); stroke-width: 0.5; stroke-dasharray: none; stroke-linecap: round; stroke-dashoffset: 0; stroke-linejoin: miter; stroke-miterlimit: 4; fill: rgb(0,0,0); fill-rule: nonzero; opacity: 1;" vector-effect="non-scaling-stroke"  transform=" translate(-94.21, -254.2)" d="M 92.68 254.132 L 95.738 254.263" stroke-linecap="round" />
</g>
		<g transform="matrix(1 0 0 1 -145.62 71.38)"  >
<path style="stroke: rgb(0,75,80); stroke-width: 0.5; stroke-dasharray: none; stroke-linecap: round; stroke-dashoffset: 0; stroke-linejoin: miter; stroke-miterlimit: 4; fill: rgb(0,0,0); fill-rule: nonzero; opacity: 1;" vector-effect="non-scaling-stroke"  transform=" translate(-94.38, -251.38)" d="M 94.542 250.586 L 94.21 252.179" stroke-linecap="round" />
</g>
		<g transform="matrix(1 0 0 1 -142.24 76.16)"  >
<path style="stroke: rgb(0,75,80); stroke-width: 0.5; stroke-dasharray: none; stroke-linecap: round; stroke-dashoffset: 0; stroke-linejoin: miter; stroke-miterlimit: 4; fill: rgb(0,0,0); fill-rule: nonzero; opacity: 1;" vector-effect="non-scaling-stroke"  transform=" translate(-97.76, -256.16)" d="M 97.792 255.432 L 97.732 256.879" stroke-linecap="round" />
</g>
		<g transform="matrix(1 0 0 1 -133.03 72.65)"  >
<path style="stroke: none; stroke-width: 1; stroke-dasharray: none; stroke-linecap: butt; stroke-dashoffset: 0; stroke-linejoin: miter; stroke-miterlimit: 4; fill: rgb(0,167,111); fill-rule: nonzero; opacity: 1;" vector-effect="non-scaling-stroke"  transform=" translate(-106.97, -252.65)" d="M 100.964 260.575 C 100.964 260.575 108.923 244.38199999999998 111.108 244.72899999999998 C 112.149 244.89899999999997 112.62700000000001 245.92499999999998 112.842 246.94699999999997 C 113.11066254038016 248.27374651016333 112.95931703701378 249.6512352602024 112.40899999999999 250.88799999999998 C 111.279 253.48899999999998 108.24099999999999 258.407 100.964 260.575 z" stroke-linecap="round" />
</g>
		<g transform="matrix(1 0 0 1 -133.93 74.13)"  >
<path style="stroke: rgb(0,75,80); stroke-width: 0.5; stroke-dasharray: none; stroke-linecap: round; stroke-dashoffset: 0; stroke-linejoin: miter; stroke-miterlimit: 4; fill: rgb(0,0,0); fill-rule: nonzero; opacity: 1;" vector-effect="non-scaling-stroke"  transform=" translate(-106.07, -254.13)" d="M 111.051 247.808 C 111.051 247.808 102.68 259.923 101.081 260.455" stroke-linecap="round" />
</g>
		<g transform="matrix(1 0 0 1 -129.15 69.7)"  >
<path style="stroke: rgb(0,75,80); stroke-width: 0.5; stroke-dasharray: none; stroke-linecap: round; stroke-dashoffset: 0; stroke-linejoin: miter; stroke-miterlimit: 4; fill: rgb(0,0,0); fill-rule: nonzero; opacity: 1;" vector-effect="non-scaling-stroke"  transform=" translate(-110.85, -249.7)" d="M 111.82 249.701 L 109.871 249.701" stroke-linecap="round" />
</g>
		<g transform="matrix(1 0 0 1 -132.04 74.2)"  >
<path style="stroke: rgb(0,75,80); stroke-width: 0.5; stroke-dasharray: none; stroke-linecap: round; stroke-dashoffset: 0; stroke-linejoin: miter; stroke-miterlimit: 4; fill: rgb(0,0,0); fill-rule: nonzero; opacity: 1;" vector-effect="non-scaling-stroke"  transform=" translate(-107.96, -254.2)" d="M 109.485 254.132 L 106.426 254.263" stroke-linecap="round" />
</g>
		<g transform="matrix(1 0 0 1 -132.21 71.38)"  >
<path style="stroke: rgb(0,75,80); stroke-width: 0.5; stroke-dasharray: none; stroke-linecap: round; stroke-dashoffset: 0; stroke-linejoin: miter; stroke-miterlimit: 4; fill: rgb(0,0,0); fill-rule: nonzero; opacity: 1;" vector-effect="non-scaling-stroke"  transform=" translate(-107.79, -251.38)" d="M 107.622 250.586 L 107.954 252.179" stroke-linecap="round" />
</g>
		<g transform="matrix(1 0 0 1 -135.6 76.16)"  >
<path style="stroke: rgb(0,75,80); stroke-width: 0.5; stroke-dasharray: none; stroke-linecap: round; stroke-dashoffset: 0; stroke-linejoin: miter; stroke-miterlimit: 4; fill: rgb(0,0,0); fill-rule: nonzero; opacity: 1;" vector-effect="non-scaling-stroke"  transform=" translate(-104.4, -256.16)" d="M 104.372 255.432 L 104.432 256.879" stroke-linecap="round" />
</g>
		<g transform="matrix(1 0 0 1 -135.59 80.38)"  >
<path style="stroke: none; stroke-width: 1; stroke-dasharray: none; stroke-linecap: butt; stroke-dashoffset: 0; stroke-linejoin: miter; stroke-miterlimit: 4; fill: rgb(0,167,111); fill-rule: nonzero; opacity: 1;" vector-effect="non-scaling-stroke"  transform=" translate(-104.41, -260.38)" d="M 87.295 264.357 C 87.07811547835614 264.1800025680038 86.92042298465387 263.9410216870612 86.843 263.672 C 86.76699527598078 263.3936406845998 86.90024716950114 263.10065466004556 87.16 262.975 C 87.46 262.865 87.758 263.065 87.997 263.274 C 88.237 263.484 88.509 263.705 88.807 263.654 C 88.48436062136231 263.36152788470866 88.33927410370147 262.9209510247962 88.425 262.49399999999997 C 88.43727190679209 262.4070707727784 88.47364571644925 262.32531630535857 88.53 262.258 C 88.691 262.084 88.984 262.159 89.178 262.29699999999997 C 89.776 262.727 89.965 263.561 89.968 264.31499999999994 C 89.998 264.03799999999995 89.998 263.75999999999993 89.968 263.4839999999999 C 89.95173614972698 263.20124523335664 90.07687758611205 262.9288565379915 90.302 262.75699999999995 C 90.44778127673469 262.67754293773083 90.61204036724268 262.6382035757184 90.778 262.643 C 91.05581841305825 262.60374022666133 91.33722659589478 262.68445420158343 91.552 262.86499999999995 C 91.76147314726515 263.1498477032848 91.74908241133132 263.540981934263 91.522 263.81199999999995 C 91.293 264.06899999999996 91.022 264.28599999999994 90.721 264.45199999999994 C 90.49257724326687 264.5898895907971 90.29756510459863 264.77670507214833 90.15 264.99899999999997 C 90.13184067894373 265.0290145235818 90.11771893056947 265.06129280558014 90.108 265.09499999999997 L 88.36800000000001 265.09499999999997 C 87.97863214678469 264.8986096979726 87.61767989176907 264.6503498990895 87.29500000000002 264.35699999999997 z M 117.626 257.833 C 117.40865802906877 257.6576726214443 117.25079258290351 257.4194774128498 117.174 257.151 C 117.09807688437883 256.87370837778394 117.22986895460105 256.581583279457 117.488 256.455 C 117.787 256.344 118.086 256.544 118.325 256.75399999999996 C 118.56400000000001 256.96299999999997 118.834 257.18999999999994 119.142 257.145 C 118.81875360500977 256.85409324384676 118.67216819515662 256.4147167692351 118.756 255.98799999999997 C 118.76895177684084 255.90089172912508 118.80601528271072 255.81914418346815 118.863 255.75199999999998 C 119.025 255.57899999999998 119.318 255.653 119.512 255.78799999999998 C 120.125 256.221 120.299 257.056 120.302 257.80899999999997 C 120.33100235183495 257.53175641763664 120.33100235183495 257.2522435823633 120.302 256.97499999999997 C 120.27419326651598 256.6953702290353 120.38605722835587 256.4200127845063 120.60100000000001 256.239 C 120.74714863691055 256.1618519930873 120.91081605039984 256.1239500657529 121.07600000000001 256.12899999999996 C 121.35315487712984 256.0899142210507 121.63398502399727 256.1690110841219 121.85000000000001 256.347 C 122.06036673602138 256.63345069467135 122.04671668527614 257.0268203388752 121.81700000000001 257.298 C 121.58965589076819 257.55550250986994 121.31972214429175 257.7719907275954 121.019 257.938 C 120.79011377323023 258.07400001351317 120.5949191887352 258.2599647314909 120.44800000000001 258.48199999999997 C 120.43054023508687 258.5130729445554 120.41645988060006 258.54592710502465 120.406 258.58 L 118.70500000000001 258.58 C 118.31269996383026 258.3817921615568 117.9496121495146 258.13042367472286 117.62600000000002 257.83299999999997 z M 107.518 264.357 C 107.30145636393233 264.1791138717906 107.14301120390743 263.9405755539509 107.063 263.672 C 106.98741844910329 263.3936748211745 107.12055101149218 263.100951174534 107.38 262.975 C 107.679 262.865 107.978 263.065 108.217 263.274 C 108.456 263.484 108.722 263.711 109.033 263.669 C 108.7109822596445 263.376044556892 108.56505307510979 262.9363618190731 108.648 262.50899999999996 C 108.66095177684083 262.4218917291251 108.69801528271071 262.34014418346817 108.755 262.27299999999997 C 108.917 262.099 109.21 262.174 109.404 262.31199999999995 C 110.017 262.74199999999996 110.187 263.57599999999996 110.193 264.3299999999999 C 110.223 264.05299999999994 110.223 263.7749999999999 110.193 263.49799999999993 C 110.16966253090695 263.2161462451146 110.28721298717784 262.9409883299582 110.50699999999999 262.7629999999999 C 110.6526412534327 262.68317937252357 110.81700050103136 262.6438160233088 110.98299999999999 262.64899999999994 C 111.26081841305823 262.6097402266613 111.54222659589476 262.6904542015834 111.75699999999999 262.8709999999999 C 111.96672741406846 263.15618961915067 111.95307051904065 263.5481011219185 111.72399999999999 263.8179999999999 C 111.49622052123082 264.07504561963964 111.22637068514557 264.2914665408108 110.92599999999999 264.4579999999999 C 110.69743461309815 264.59570325024754 110.5023850565478 264.7825545767502 110.35499999999999 265.00499999999994 C 110.33696139372681 265.0350769536563 110.32284670859171 265.06733909110795 110.31299999999999 265.10099999999994 L 108.579 265.10099999999994 C 108.19399999999999 264.90099999999995 107.83699999999999 264.65099999999995 107.518 264.3569999999999 z" stroke-linecap="round" />
</g>
		<g transform="matrix(1 0 0 1 -155.53 -93)"  >
<circle style="stroke: none; stroke-width: 1; stroke-dasharray: none; stroke-linecap: butt; stroke-dashoffset: 0; stroke-linejoin: miter; stroke-miterlimit: 4; fill: rgb(0,167,111); fill-rule: nonzero; opacity: 0.1;" vector-effect="non-scaling-stroke"  cx="0" cy="0" r="6.467" />
</g>
		<g transform="matrix(1 0 0 1 155.43 -41.32)"  >
<circle style="stroke: none; stroke-width: 1; stroke-dasharray: none; stroke-linecap: butt; stroke-dashoffset: 0; stroke-linejoin: miter; stroke-miterlimit: 4; fill: rgb(0,167,111); fill-rule: nonzero; opacity: 0.1;" vector-effect="non-scaling-stroke"  cx="0" cy="0" r="6.467" />
</g>
		<g transform="matrix(1 0 0 1 39.18 -113.53)"  >
<circle style="stroke: none; stroke-width: 1; stroke-dasharray: none; stroke-linecap: butt; stroke-dashoffset: 0; stroke-linejoin: miter; stroke-miterlimit: 4; fill: rgb(0,167,111); fill-rule: nonzero; opacity: 0.1;" vector-effect="non-scaling-stroke"  cx="0" cy="0" r="6.467" />
</g>
		<g transform="matrix(1 0 0 1 -142.6 -57.32)"  >
<circle style="stroke: none; stroke-width: 1; stroke-dasharray: none; stroke-linecap: butt; stroke-dashoffset: 0; stroke-linejoin: miter; stroke-miterlimit: 4; fill: rgb(0,167,111); fill-rule: nonzero; opacity: 0.1;" vector-effect="non-scaling-stroke"  cx="0" cy="0" r="10.838" />
</g>
		<g transform="matrix(1 0 0 1 -33.97 44.35)"  >
<path style="stroke: none; stroke-width: 1; stroke-dasharray: none; stroke-linecap: butt; stroke-dashoffset: 0; stroke-linejoin: miter; stroke-miterlimit: 4; fill: rgb(0,120,103); fill-rule: nonzero; opacity: 1;" vector-effect="non-scaling-stroke"  transform=" translate(-206.03, -224.35)" d="M 206.029 209.911 C 198.054 209.911 191.589 216.376 191.589 224.351 C 191.589 232.326 198.054 238.791 206.029 238.791 C 214.004 238.791 220.469 232.326 220.469 224.351 C 220.469 216.376 214.004 209.911 206.029 209.911 z" stroke-linecap="round" />
</g>
		<g transform="matrix(1 0 0 1 -33.97 44.35)"  >
<path style="stroke: none; stroke-width: 1; stroke-dasharray: none; stroke-linecap: butt; stroke-dashoffset: 0; stroke-linejoin: miter; stroke-miterlimit: 4; fill: rgb(0,167,111); fill-rule: nonzero; opacity: 0.72;" vector-effect="non-scaling-stroke"  transform=" translate(-206.03, -224.35)" d="M 206.029 211.59 C 213.076 211.59 218.79 217.304 218.79 224.351 C 218.79 231.399 213.076 237.112 206.029 237.112 C 198.981 237.112 193.268 231.399 193.268 224.351 C 193.274 217.306 198.984 211.597 206.029 211.59" stroke-linecap="round" />
</g>
		<g transform="matrix(1 0 0 1 -33.97 44.35)"  >
<path style="stroke: none; stroke-width: 1; stroke-dasharray: none; stroke-linecap: butt; stroke-dashoffset: 0; stroke-linejoin: miter; stroke-miterlimit: 4; fill: rgb(0,120,103); fill-rule: nonzero; opacity: 1;" vector-effect="non-scaling-stroke"  transform=" translate(-206.03, -224.35)" d="M 200.058 225.406 L 199.35899999999998 224.725 C 199.20935142776028 224.58839367375555 199.1240912980089 224.3951227616616 199.1240912980089 224.1925 C 199.1240912980089 223.98987723833838 199.20935142776028 223.79660632624444 199.35899999999998 223.66 L 205.486 217.676 C 205.6287558774689 217.52757874496572 205.82606967393366 217.44409983107678 206.03199999999998 217.445 C 206.23799999999997 217.445 206.43599999999998 217.528 206.57699999999997 217.676 L 212.70399999999998 223.654 C 212.8503587748294 223.79244823274448 212.93328108036323 223.9850333672301 212.93328108036323 224.1865 C 212.93328108036323 224.3879666327699 212.8503587748294 224.5805517672555 212.70399999999998 224.719 L 212.00499999999997 225.40099999999998 C 211.8607781666754 225.54652771845517 211.66438595375539 225.62839501482134 211.45949999999996 225.62839501482134 C 211.25461404624454 225.62839501482134 211.05822183332452 225.54652771845517 210.91399999999996 225.40099999999998 L 207.29199999999997 221.67399999999998 L 207.29199999999997 230.51699999999997 C 207.29302377843857 230.7138341201542 207.21397020403444 230.90262416313752 207.07299999999998 231.03999999999996 C 206.93039945143826 231.1796461280671 206.738588595316 231.25759173813927 206.539 231.25699999999998 L 205.53 231.25699999999998 C 205.11616003506992 231.26200283042851 204.77648803135781 230.9308338149516 204.77100000000002 230.51699999999997 L 204.77100000000002 221.68499999999997 L 201.149 225.41099999999997 C 201.0041122817339 225.55586876569993 200.8073444676384 225.636837392793 200.60245784414596 225.6358984073508 C 200.39757122065353 225.63495942190858 200.20155380696957 225.55219067919782 200.058 225.40599999999998 z" stroke-linecap="round" />
</g>
</g>
</g>
</svg>