<?xml version="1.0" encoding="utf-8"?>
<svg version="1.1" id="Layer_1" xmlns="http://www.w3.org/2000/svg" xmlns:xlink="http://www.w3.org/1999/xlink" x="0px" y="0px"
	 viewBox="0 0 241.26 102.59" style="enable-background:new 0 0 241.26 102.59;" xml:space="preserve">
<style type="text/css">
	.st0{fill-rule:evenodd;clip-rule:evenodd;fill:url(#SVGID_1_);}
	.st1{fill-rule:evenodd;clip-rule:evenodd;fill:url(#SVGID_00000045607457073514261290000005044853681560462231_);}
	.st2{fill-rule:evenodd;clip-rule:evenodd;fill:url(#SVGID_00000028296975078611983320000001541470849459047559_);}
	.st3{fill-rule:evenodd;clip-rule:evenodd;fill:url(#SVGID_00000111904807945360835360000000713872031264983958_);}
	.st4{fill-rule:evenodd;clip-rule:evenodd;fill:#4CAF50;}
	.st5{fill:#4CAF50;}
</style>
<g>
	<g>
		<linearGradient id="SVGID_1_" gradientUnits="userSpaceOnUse" x1="30.6658" y1="18.5092" x2="34.7833" y2="61.9241">
			<stop  offset="0" style="stop-color:#00B4EA"/>
			<stop  offset="1" style="stop-color:#237CC1"/>
		</linearGradient>
		<path class="st0" d="M59.62,6.97c1.92,0,3.48-1.56,3.48-3.49C63.1,1.56,61.53,0,59.61,0c-7.67,0-15.36,1.5-22.58,4.49
			c-6.95,2.88-13.45,7.14-19.1,12.78l-0.01,0.01l0,0c-5.64,5.64-9.91,12.16-12.79,19.11c-2.99,7.22-4.48,14.9-4.48,22.59
			c0,1.92,1.56,3.48,3.48,3.48c1.92,0,3.48-1.56,3.48-3.49c0-6.79,1.32-13.57,3.95-19.93c2.53-6.12,6.29-11.86,11.28-16.84l0,0
			c4.98-4.98,10.72-8.74,16.84-11.27C46.04,8.28,52.82,6.97,59.62,6.97z"/>
		
			<linearGradient id="SVGID_00000171715456874166839460000009232549826451087243_" gradientUnits="userSpaceOnUse" x1="41.874" y1="61.3781" x2="39.1065" y2="22.014">
			<stop  offset="0" style="stop-color:#579F46"/>
			<stop  offset="1" style="stop-color:#A0CD4F"/>
		</linearGradient>
		<path style="fill-rule:evenodd;clip-rule:evenodd;fill:url(#SVGID_00000171715456874166839460000009232549826451087243_);" d="
			M59.62,23.92c1.92,0,3.48-1.56,3.48-3.49c0-1.92-1.56-3.48-3.49-3.48c-5.46,0-10.94,1.07-16.09,3.2
			c-4.95,2.05-9.58,5.09-13.61,9.11c-4.03,4.03-7.08,8.67-9.12,13.62c-2.13,5.14-3.19,10.62-3.19,16.09c0,1.92,1.56,3.48,3.48,3.48
			c1.92,0,3.48-1.56,3.48-3.49c0-4.58,0.89-9.15,2.66-13.44c1.71-4.13,4.24-8,7.59-11.35c3.36-3.36,7.23-5.89,11.36-7.6
			C50.46,24.81,55.03,23.92,59.62,23.92z"/>
		
			<linearGradient id="SVGID_00000144338364509077877190000002239674053644680113_" gradientUnits="userSpaceOnUse" x1="44.3596" y1="33.9372" x2="52.5696" y2="60.1083">
			<stop  offset="0" style="stop-color:#FCAF20"/>
			<stop  offset="1" style="stop-color:#F05123"/>
		</linearGradient>
		<path style="fill-rule:evenodd;clip-rule:evenodd;fill:url(#SVGID_00000144338364509077877190000002239674053644680113_);" d="
			M59.62,40.88c1.92,0,3.48-1.56,3.48-3.49c0-1.92-1.56-3.48-3.49-3.48c-3.25,0-6.51,0.64-9.59,1.91c-2.95,1.22-5.71,3.03-8.11,5.43
			l-0.01,0.01l0,0c-2.4,2.4-4.21,5.16-5.43,8.12c-1.27,3.07-1.9,6.33-1.9,9.59c0,1.92,1.56,3.48,3.49,3.48
			c1.92,0,3.48-1.56,3.48-3.49c0-2.37,0.46-4.73,1.37-6.94c0.88-2.13,2.19-4.12,3.92-5.86l0,0c1.73-1.73,3.73-3.04,5.86-3.92
			C54.88,41.34,57.24,40.88,59.62,40.88z"/>
		
			<linearGradient id="SVGID_00000029742487023465564490000013678845964543431343_" gradientUnits="userSpaceOnUse" x1="65.0463" y1="62.856" x2="53.3649" y2="54.5136">
			<stop  offset="0" style="stop-color:#DC2028"/>
			<stop  offset="1" style="stop-color:#F05123"/>
		</linearGradient>
		<path style="fill-rule:evenodd;clip-rule:evenodd;fill:url(#SVGID_00000029742487023465564490000013678845964543431343_);" d="
			M53.38,52.73c-5.54,5.54-1.6,15.06,6.24,15.05c7.84,0,11.77-9.52,6.24-15.05C62.41,49.29,56.82,49.29,53.38,52.73z"/>
		<path class="st4" d="M17.83,86.49l-7.17-12.41c6.94,1.3,13.89,1.32,20.83,0.02l-7.15,12.39C22.32,85.62,19.85,85.62,17.83,86.49
			L17.83,86.49z M9.27,85.6l8.71,15.09c1.41,2.59,4.81,2.43,6.12,0.15l17.6-30.48l-0.01,0c1.59-2.76-1.09-6.06-4.12-5.04
			c-5.5,1.86-11,2.78-16.49,2.77c-5.45-0.01-10.9-0.93-16.36-2.73c-3.2-1.13-5.83,2.26-4.25,5L9.27,85.6z"/>
	</g>
	<g>
		<path class="st5" d="M81.32,10.88h8.51v36.48h14.94v6.95H81.32V10.88z"/>
		<path class="st5" d="M129.26,42.95c-0.35,5.62-0.58,12.27-11.06,12.27c-11.29,0-11.52-8.11-11.52-17.6
			c0-11.52,2.2-16.56,11.52-16.56c11,0,11.17,8.45,11.17,18.76h-15.05c0,5.85,0.35,9.38,3.94,9.38c2.78,0,3.3-2.95,3.36-6.25H129.26
			z M121.74,33.81c0-3.82-0.12-6.72-3.53-6.72c-3.71,0-3.88,3.07-3.88,6.72H121.74z"/>
		<path class="st5" d="M149.12,51.35c-2.9,3.13-4.52,3.88-7.24,3.88c-5.15,0-8.05-3.71-8.05-9.78c0-5.56,3.47-8.34,7.24-9.84
			l4.81-2.14c1.22-0.52,2.89-1.5,2.89-3.76c0-1.39-1.39-2.6-3.47-2.6c-3.3,0-3.71,2.66-3.71,4.63h-7.64c0-2.32,0.35-4.98,1.91-7.06
			c1.62-2.08,4.46-3.59,9.38-3.59c7.64,0,11.17,2.78,11.17,9.44V48.4c0,1.97,0.23,3.94,0.46,5.91h-7.35L149.12,51.35z M148.78,37.92
			c-5.61,2.89-7.3,3.99-7.3,7.3c0,2.55,1.39,3.99,3.53,3.99c3.59,0,3.76-4.81,3.76-8.45V37.92z"/>
		<path class="st5" d="M161.4,21.99h7.24v5.15h0.12c1.56-3.53,3.07-6.08,7.35-6.08v8.8h-1.56c-3.47,0-5.5,2.14-5.5,6.54V54.3h-7.64
			V21.99z"/>
		<path class="st5" d="M180.22,21.99h7.24v2.95h0.12c0.87-1.45,3.65-3.88,7.18-3.88c5.04,0,7.24,3.59,7.24,10.77V54.3h-7.64V32.82
			c0-2.32-0.23-5.73-3.18-5.73c-3.07,0-3.3,3.76-3.3,6.31v20.9h-7.64V21.99z"/>
		<path class="st5" d="M91.26,71c3.31,2.2,4.76,3.85,4.76,7.36c0,4.66-2.8,7.4-8.11,7.4c-6.08,0-7.23-4.39-7.23-9.49h4.66
			c0.1,2.6,0,5.44,2.84,5.44c1.82,0,2.87-1.15,2.87-2.87c0-1.93-1.32-2.8-2.57-3.65l-3.28-2.23c-2.33-1.52-4.43-3.14-4.43-6.92
			c0-4.19,3.07-6.69,7.36-6.69c6.28,0,7.4,4.16,7.4,8.34h-4.66c-0.03-1.25,0-4.29-2.77-4.29c-1.28,0-2.36,0.91-2.36,2.23
			c0,1.32,0.78,2.13,2.4,3.24L91.26,71z"/>
		<path class="st5" d="M107.17,83.5c-1.69,1.82-2.64,2.26-4.22,2.26c-3.01,0-4.7-2.16-4.7-5.71c0-3.24,2.03-4.86,4.22-5.74l2.8-1.25
			c0.71-0.3,1.69-0.88,1.69-2.2c0-0.81-0.81-1.52-2.03-1.52c-1.93,0-2.16,1.55-2.16,2.7h-4.46c0-1.35,0.2-2.91,1.12-4.12
			c0.95-1.22,2.6-2.09,5.47-2.09c4.46,0,6.52,1.62,6.52,5.51v10.44c0,1.15,0.13,2.3,0.27,3.45h-4.29L107.17,83.5z M106.97,75.66
			c-3.28,1.69-4.26,2.33-4.26,4.26c0,1.49,0.81,2.33,2.06,2.33c2.09,0,2.2-2.8,2.2-4.93V75.66z"/>
		<path class="st5" d="M115.14,69.88h-1.69v-3.51h1.69V63.7c0-2.87,1.86-3.82,4.39-3.82c0.68,0,1.59,0.03,2.03,0.1v3.58
			c-0.24-0.07-0.51-0.1-0.74-0.1c-0.61,0-1.22,0.13-1.22,1.69v1.22h1.96v3.51h-1.96v15.34h-4.46V69.88z"/>
		<path class="st5" d="M131.56,83.5c-1.69,1.82-2.64,2.26-4.22,2.26c-3.01,0-4.7-2.16-4.7-5.71c0-3.24,2.03-4.86,4.22-5.74l2.8-1.25
			c0.71-0.3,1.69-0.88,1.69-2.2c0-0.81-0.81-1.52-2.03-1.52c-1.93,0-2.16,1.55-2.16,2.7h-4.46c0-1.35,0.2-2.91,1.12-4.12
			c0.95-1.22,2.6-2.09,5.47-2.09c4.46,0,6.52,1.62,6.52,5.51v10.44c0,1.15,0.13,2.3,0.27,3.45h-4.29L131.56,83.5z M131.36,75.66
			c-3.28,1.69-4.26,2.33-4.26,4.26c0,1.49,0.81,2.33,2.06,2.33c2.09,0,2.2-2.8,2.2-4.93V75.66z"/>
		<path class="st5" d="M138.73,66.37h4.22v3.01h0.07c0.91-2.06,1.79-3.55,4.29-3.55v5.13h-0.91c-2.03,0-3.21,1.25-3.21,3.82v10.44
			h-4.46V66.37z"/>
		<path class="st5" d="M149.94,59.89h4.46v4.19h-4.46V59.89z M149.94,66.37h4.46v18.85h-4.46V66.37z"/>
		<path class="st5" d="M183.49,75.97c0,4.43-0.57,9.8-7.57,9.8c-7.2,0-7.84-5.03-7.84-13.99c0-7.53,0.71-12.43,7.84-12.43
			c7.03,0,7.57,4.29,7.57,8.45h-4.66c-0.17-1.55-0.03-4.39-2.91-4.39c-2.87,0-2.87,2.84-2.87,8.38c0,6.15,0,9.93,2.87,9.93
			c2.87,0,2.91-1.93,2.91-5.74H183.49z"/>
		<path class="st5" d="M194.71,83.5c-1.69,1.82-2.64,2.26-4.22,2.26c-3.01,0-4.7-2.16-4.7-5.71c0-3.24,2.03-4.86,4.22-5.74l2.8-1.25
			c0.71-0.3,1.69-0.88,1.69-2.2c0-0.81-0.81-1.52-2.03-1.52c-1.93,0-2.16,1.55-2.16,2.7h-4.46c0-1.35,0.2-2.91,1.12-4.12
			c0.95-1.22,2.6-2.09,5.47-2.09c4.46,0,6.52,1.62,6.52,5.51v10.44c0,1.15,0.13,2.3,0.27,3.45h-4.29L194.71,83.5z M194.5,75.66
			c-3.28,1.69-4.26,2.33-4.26,4.26c0,1.49,0.81,2.33,2.06,2.33c2.09,0,2.2-2.8,2.2-4.93V75.66z"/>
		<path class="st5" d="M202.21,66.37h4.22v1.89h0.07c0.74-1.25,1.89-2.43,4.46-2.43c2.5,0,3.38,1.15,3.99,2.13
			c0.74-0.95,1.86-2.13,4.49-2.13c4.66,0,4.66,3.75,4.66,6.72v12.67h-4.46V72.45c0-1.99-0.64-3.11-2.03-3.11
			c-1.59,0-2.23,1.15-2.23,3.38v12.5h-4.46v-12.5c0-2.26-0.34-3.38-2.03-3.38c-1.49,0-2.23,1.18-2.23,3.38v12.5h-4.46V66.37z"/>
		<path class="st5" d="M228.09,66.37h4.22v1.69c1.15-1.18,1.82-2.23,4.26-2.23c3.01,0,4.7,2.06,4.7,6.45v5.98
			c0,4.59-1.18,7.5-4.8,7.5c-1.45,0-2.57-0.57-3.92-1.92v7.87h-4.46V66.37z M232.55,77.18c0,2.74,0.1,5.07,2.16,5.07
			c2.09,0,2.09-2.74,2.09-5.07V73.5c0-2.26-0.07-4.16-2.09-4.16c-1.79,0-2.16,2.26-2.16,4.16V77.18z"/>
	</g>
</g>
</svg>
