<?xml version="1.0" encoding="utf-8"?>
<!-- Generator: Adobe Illustrator 26.0.0, SVG Export Plug-In . SVG Version: 6.00 Build 0)  -->
<svg version="1.1" id="Layer_1" xmlns="http://www.w3.org/2000/svg" xmlns:xlink="http://www.w3.org/1999/xlink" x="0px" y="0px"
	 viewBox="0 0 68.44 102.59" style="enable-background:new 0 0 68.44 102.59;" xml:space="preserve">
<style type="text/css">
	.st0{fill-rule:evenodd;clip-rule:evenodd;fill:url(#SVGID_1_);}
	.st1{fill-rule:evenodd;clip-rule:evenodd;fill:url(#SVGID_00000178194218031896049080000000662319239960500881_);}
	.st2{fill-rule:evenodd;clip-rule:evenodd;fill:url(#SVGID_00000069384458314393063640000000695744380609664692_);}
	.st3{fill-rule:evenodd;clip-rule:evenodd;fill:url(#SVGID_00000101789221116025748670000005976229169401182344_);}
	.st4{fill-rule:evenodd;clip-rule:evenodd;fill:#4CAF50;}
</style>
<g>
	<linearGradient id="SVGID_1_" gradientUnits="userSpaceOnUse" x1="30.6658" y1="18.5092" x2="34.7833" y2="61.9241">
		<stop  offset="0" style="stop-color:#00B4EA"/>
		<stop  offset="1" style="stop-color:#237CC1"/>
	</linearGradient>
	<path class="st0" d="M59.62,6.97c1.92,0,3.48-1.56,3.48-3.49C63.1,1.56,61.53,0,59.61,0c-7.67,0-15.36,1.5-22.58,4.49
		c-6.95,2.88-13.45,7.14-19.1,12.78l-0.01,0.01l0,0c-5.64,5.64-9.91,12.16-12.79,19.11c-2.99,7.22-4.48,14.9-4.48,22.59
		c0,1.92,1.56,3.48,3.48,3.48c1.92,0,3.48-1.56,3.48-3.49c0-6.79,1.32-13.57,3.95-19.93c2.53-6.12,6.29-11.86,11.28-16.84l0,0
		c4.98-4.98,10.72-8.74,16.84-11.27C46.04,8.28,52.82,6.97,59.62,6.97z"/>
	
		<linearGradient id="SVGID_00000147183760496114808020000007851816713560217991_" gradientUnits="userSpaceOnUse" x1="41.874" y1="61.3781" x2="39.1065" y2="22.014">
		<stop  offset="0" style="stop-color:#579F46"/>
		<stop  offset="1" style="stop-color:#A0CD4F"/>
	</linearGradient>
	<path style="fill-rule:evenodd;clip-rule:evenodd;fill:url(#SVGID_00000147183760496114808020000007851816713560217991_);" d="
		M59.62,23.92c1.92,0,3.48-1.56,3.48-3.49c0-1.92-1.56-3.48-3.49-3.48c-5.46,0-10.94,1.07-16.09,3.2
		c-4.95,2.05-9.58,5.09-13.61,9.11c-4.03,4.03-7.08,8.67-9.12,13.62c-2.13,5.14-3.19,10.62-3.19,16.09c0,1.92,1.56,3.48,3.48,3.48
		c1.92,0,3.48-1.56,3.48-3.49c0-4.58,0.89-9.15,2.66-13.44c1.71-4.13,4.24-8,7.59-11.35c3.36-3.36,7.23-5.89,11.36-7.6
		C50.46,24.81,55.03,23.92,59.62,23.92z"/>
	
		<linearGradient id="SVGID_00000013888572859599828450000001545447506897810854_" gradientUnits="userSpaceOnUse" x1="44.3596" y1="33.9372" x2="52.5696" y2="60.1083">
		<stop  offset="0" style="stop-color:#FCAF20"/>
		<stop  offset="1" style="stop-color:#F05123"/>
	</linearGradient>
	<path style="fill-rule:evenodd;clip-rule:evenodd;fill:url(#SVGID_00000013888572859599828450000001545447506897810854_);" d="
		M59.62,40.88c1.92,0,3.48-1.56,3.48-3.49c0-1.92-1.56-3.48-3.49-3.48c-3.25,0-6.51,0.64-9.59,1.91c-2.95,1.22-5.71,3.03-8.11,5.43
		l-0.01,0.01l0,0c-2.4,2.4-4.21,5.16-5.43,8.12c-1.27,3.07-1.9,6.33-1.9,9.59c0,1.92,1.56,3.48,3.49,3.48
		c1.92,0,3.48-1.56,3.48-3.49c0-2.37,0.46-4.73,1.37-6.94c0.88-2.13,2.19-4.12,3.92-5.86l0,0c1.73-1.73,3.73-3.04,5.86-3.92
		C54.88,41.34,57.24,40.88,59.62,40.88z"/>
	
		<linearGradient id="SVGID_00000012456574329476088930000017317605614673390504_" gradientUnits="userSpaceOnUse" x1="65.0463" y1="62.856" x2="53.3649" y2="54.5136">
		<stop  offset="0" style="stop-color:#DC2028"/>
		<stop  offset="1" style="stop-color:#F05123"/>
	</linearGradient>
	<path style="fill-rule:evenodd;clip-rule:evenodd;fill:url(#SVGID_00000012456574329476088930000017317605614673390504_);" d="
		M53.38,52.73c-5.54,5.54-1.6,15.06,6.24,15.05c7.84,0,11.77-9.52,6.24-15.05C62.41,49.29,56.82,49.29,53.38,52.73z"/>
	<path class="st4" d="M17.83,86.49l-7.17-12.41c6.94,1.3,13.89,1.32,20.83,0.02l-7.15,12.39C22.32,85.62,19.85,85.62,17.83,86.49
		L17.83,86.49z M9.27,85.6l8.71,15.09c1.41,2.59,4.81,2.43,6.12,0.15l17.6-30.48l-0.01,0c1.59-2.76-1.09-6.06-4.12-5.04
		c-5.5,1.86-11,2.78-16.49,2.77c-5.45-0.01-10.9-0.93-16.36-2.73c-3.2-1.13-5.83,2.26-4.25,5L9.27,85.6z"/>
</g>
</svg>
